# xmcd
#
# Track frame offsets: 
#        182
#        19312
#        35340
#        52907
#        72217
#        90437
#        109742
#        129862
#        150355
#        170887
#        186850
#        204487
#
# Disc length: 2857 seconds
#
# Revision: 0
# Processed by: cddbd v1.4PL0 Copyright (c) Steve Scherf et al.
# Submitted via: ExactAudioCopy v0.95a3
#
DISCID=950b270c
DTITLE=The Listening Pool - Still Life
DYEAR=1994
DGENRE=Rock
TTITLE0=Meant To Be
TTITLE1=Oil For The Lamps Of China
TTITLE2=Follow Where You Go
TTITLE3=Breathless
TTITLE4=Somebody Somewhere
TTITLE5=Photograph Of You
TTITLE6=Promised The World
TTITLE7=Blue Africa
TTITLE8=Still Life
TTITLE9=Where Do We Go From Here
TTITLE10=Wild Strawberries
TTITLE11=Hand Me That Universe
EXTD=
EXTT0=
EXTT1=
EXTT2=
EXTT3=
EXTT4=
EXTT5=
EXTT6=
EXTT7=
EXTT8=
EXTT9=
EXTT10=
EXTT11=
PLAYORDER=
